<svg width="60" height="48" viewBox="0 0 60 48" fill="none" xmlns="http://www.w3.org/2000/svg">
<path d="M8.82553 23.7743C13.3813 24.8067 19.479 25.3724 26.0023 25.3724C32.5255 25.3724 38.6232 24.8067 43.179 23.7743C45.7953 23.1874 47.3929 22.1692 48.4115 21.3631L47.365 3.13369C47.2813 1.91745 46.6534 0.870924 45.6836 0.34766C44.5464 -0.267529 43.2209 -0.0412524 42.3139 0.920422L33.4743 10.2543C31.0953 9.6462 28.6046 9.34214 26.065 9.34214C23.5255 9.34214 21.0139 9.65327 18.6209 10.2614L9.76739 0.920422C8.85343 -0.0483235 7.52785 -0.2746 6.39064 0.34766C5.42088 0.870924 4.79297 1.91745 4.70925 3.13369L3.65576 21.4196C4.67437 22.2187 6.26506 23.2016 8.81855 23.7814L8.82553 23.7743Z" fill="#E66509"/>
<path d="M58.6953 26.3977C57.2721 24.5663 54.7883 23.7956 52.3535 24.439C52.186 24.4815 52.0325 24.5239 51.893 24.5663C51.9488 23.8733 51.9907 23.1733 51.9907 22.4733C51.9907 21.9924 51.6069 21.5964 51.1255 21.5964C50.6442 21.5964 48.8651 24.439 43.5767 25.627C38.8883 26.6877 32.6442 27.2675 25.9953 27.2675C19.3465 27.2675 13.1023 26.6877 8.41395 25.627C3.12558 24.432 1.33953 21.5964 0.865116 21.5964C0.390697 21.5964 0 21.9853 0 22.4733C0 36.5519 11.6581 48 25.9953 48C32.3372 48 38.1488 45.7585 42.6628 42.0391C43.3883 42.1522 44.1209 42.2088 44.8535 42.2088C48.3418 42.2088 51.9139 40.9501 55.2907 38.5106C57.3 37.061 58.6953 35.3781 59.4279 33.5113C60.4046 31.0223 60.1116 28.2362 58.6953 26.4048V26.3977ZM56.8674 32.4718C56.3372 33.8295 55.2697 35.0882 53.7 36.2266C51.7116 37.662 48.8023 39.2248 45.4395 39.3945C48.3907 36.1276 50.5046 32.1253 51.4465 27.6988C51.8721 27.4796 52.2418 27.3736 53.0581 27.1543C54.0976 26.8786 55.6255 26.9705 56.5325 28.1372C57.3348 29.1625 57.4674 30.9515 56.8744 32.4789L56.8674 32.4718Z" fill="#4D1313"/>
</svg>
