<svg width="16" height="16" viewBox="0 0 16 16" fill="none" xmlns="http://www.w3.org/2000/svg">
<g clip-path="url(#clip0_136_1277)">
<path d="M2.05393 14.1296L1.64648 13.8884L2.57858 12.2936L3.63346 12.9162L3.46044 13.2097L2.74788 12.789L2.5823 13.0713C2.72369 13.1349 2.77579 13.1667 2.84834 13.2097C3.24648 13.4453 3.33951 13.7126 3.1423 14.0492C2.9209 14.4268 2.59718 14.4493 2.05207 14.1277L2.05393 14.1296ZM2.17486 13.7725L2.33486 13.8659C2.5823 14.0118 2.68834 14.0062 2.78137 13.8472C2.86695 13.7014 2.82974 13.6173 2.62137 13.4957C2.62137 13.4957 2.50416 13.4266 2.39997 13.3873L2.17486 13.7725Z" fill="black"/>
<path d="M4.9042 15.3205L4.49304 15.1915L4.5042 14.8176L3.91629 14.6343L3.71536 14.9484L3.3042 14.8194L4.38699 13.2228L4.91536 13.3873L4.90606 15.3205H4.9042ZM4.10792 14.3296L4.51164 14.4567L4.53955 13.6547L4.10792 14.3296Z" fill="black"/>
<path d="M6.9135 14.4755C6.88001 14.8213 6.67908 14.9765 6.23071 14.9335L5.91815 14.9036L5.8642 15.4608L5.45117 15.4215L5.62792 13.5818L6.37582 13.6547C6.82047 13.6977 6.96931 13.8903 6.93582 14.2362L6.9135 14.4773V14.4755ZM6.52094 14.2343C6.53396 14.1015 6.49303 14.0361 6.32001 14.0193L6.00745 13.9894L5.9535 14.5446L6.26606 14.5746C6.44466 14.5914 6.49303 14.5259 6.50606 14.3951L6.52094 14.2343Z" fill="black"/>
<path d="M7.71162 14.8905C7.72836 15.0532 7.7879 15.1392 7.99255 15.1186C8.12464 15.1055 8.30139 15.0719 8.46139 15.0251L8.55627 15.3803C8.3758 15.4402 8.21952 15.4738 8.03162 15.4925C7.57022 15.5411 7.33952 15.3299 7.30604 14.9989L7.22604 14.2324C7.19255 13.9015 7.37487 13.6472 7.83627 13.6005C8.02232 13.5818 8.18418 13.5818 8.37208 13.6023L8.35162 13.9707C8.18604 13.9576 8.00557 13.9613 7.87534 13.9763C7.66883 13.9987 7.62976 14.094 7.6465 14.2567L7.71162 14.8924V14.8905Z" fill="black"/>
<path d="M9.19442 15.2887L8.61768 13.5332L8.99349 13.4079L9.39163 14.6175L9.56837 13.2172L10.0502 13.0564L10.627 14.812L10.2512 14.9372L9.87163 13.7837L9.68 15.1279L9.19442 15.2887Z" fill="black"/>
<path d="M10.3459 12.9068L10.6976 12.6881L11.6632 14.2604L11.3115 14.4792L10.3459 12.9068ZM11.2166 13.4303L11.1664 12.3983L11.5627 12.1515L11.5962 13.1947L12.5618 13.7051L12.1655 13.9519L11.2166 13.4322V13.4303Z" fill="black"/>
<path d="M2.35175 6.78562C3.56663 7.05859 5.19268 7.20816 6.93221 7.20816C8.67175 7.20816 10.2978 7.05859 11.5127 6.78562C12.2104 6.63044 12.6364 6.36122 12.908 6.14808L12.629 1.32819C12.6066 1.00661 12.4392 0.729908 12.1806 0.591556C11.8773 0.428899 11.5238 0.488727 11.282 0.742996L8.92477 3.2109C8.29035 3.05011 7.62617 2.96972 6.94896 2.96972C6.27175 2.96972 5.60198 3.05198 4.96384 3.21277L2.60291 0.742996C2.35919 0.486857 2.0057 0.427029 1.70245 0.591556C1.44384 0.729908 1.2764 1.00661 1.25407 1.32819L0.973145 6.16304C1.24477 6.37431 1.66896 6.63418 2.34989 6.78749L2.35175 6.78562Z" fill="#E66509"/>
<path d="M15.6501 7.47931C15.2706 6.99508 14.6083 6.79129 13.959 6.96143C13.9143 6.97265 13.8734 6.98386 13.8362 6.99508C13.8511 6.81186 13.8622 6.62677 13.8622 6.44167C13.8622 6.31454 13.7599 6.20984 13.6315 6.20984C13.5032 6.20984 13.0287 6.96143 11.6185 7.27553C10.3683 7.55597 8.70316 7.70928 6.93014 7.70928C5.15712 7.70928 3.492 7.55597 2.24177 7.27553C0.831535 6.95956 0.355256 6.20984 0.228745 6.20984C0.102233 6.20984 -0.00195312 6.31267 -0.00195312 6.44167C-0.00195312 10.1641 3.10688 13.191 6.93014 13.191C8.6213 13.191 10.1711 12.5983 11.3748 11.6149C11.5683 11.6448 11.7636 11.6598 11.959 11.6598C12.8892 11.6598 13.8418 11.327 14.7422 10.682C15.278 10.2987 15.6501 9.85374 15.8455 9.36016C16.106 8.70205 16.0278 7.96542 15.6501 7.48118V7.47931ZM15.1627 9.08532C15.0213 9.44429 14.7367 9.77708 14.318 10.0781C13.7878 10.4576 13.012 10.8708 12.1153 10.9157C12.9022 10.0519 13.466 8.99371 13.7171 7.82332C13.8306 7.76537 13.9292 7.73732 14.1469 7.67936C14.4241 7.60645 14.8315 7.63075 15.0734 7.93924C15.2873 8.21034 15.3227 8.68335 15.1646 9.08719L15.1627 9.08532Z" fill="#4D1313"/>
</g>
<defs>
<clipPath id="clip0_136_1277">
<rect width="16" height="15" fill="white" transform="translate(0 0.5)"/>
</clipPath>
</defs>
</svg>
