<svg width="29" height="24" viewBox="0 0 29 24" fill="none" xmlns="http://www.w3.org/2000/svg">
<path d="M28.3961 0.30017C28.7169 0.598612 28.9498 0.882466 28.9996 1.32642C29.0083 2.03401 28.8721 2.68369 28.7116 3.37087C28.6828 3.49762 28.6542 3.62439 28.6256 3.75119C28.5639 4.02399 28.5015 4.29664 28.4387 4.56919C28.3374 5.00855 28.2375 5.44822 28.1379 5.88795C28.0321 6.35471 27.9262 6.82144 27.8198 7.28807C27.4778 8.78911 27.1428 10.2916 26.8088 11.7945C26.6866 12.3446 26.5641 12.8948 26.4414 13.4448C26.4241 13.5226 26.4067 13.6004 26.3888 13.6806C26.3538 13.8377 26.3188 13.9948 26.2837 14.1519C26.036 15.2631 25.7885 16.3744 25.5419 17.4858C25.4028 18.1123 25.2635 18.7387 25.1241 19.3651C25.0263 19.8041 24.9289 20.2431 24.8318 20.6822C24.7722 20.9511 24.7123 21.2199 24.6523 21.4887C24.6247 21.6125 24.5973 21.7363 24.57 21.8602C24.5327 22.0292 24.495 22.1981 24.4572 22.367C24.4466 22.4155 24.436 22.464 24.4251 22.5139C24.2932 23.0969 24.1389 23.5346 23.6146 23.8736C23.2956 24.0272 22.974 24.0275 22.6328 23.9455C22.2264 23.7843 21.8892 23.4995 21.547 23.2347C21.4559 23.1649 21.3647 23.095 21.2736 23.0251C21.1281 22.9133 20.9828 22.8013 20.8379 22.6889C20.4867 22.417 20.1302 22.1533 19.7701 21.8932C19.3169 21.5658 18.8721 21.2295 18.4306 20.887C18.0353 20.5814 17.6324 20.2872 17.2273 19.9946C16.6767 19.5954 16.1391 19.1801 15.6024 18.7628C15.2748 19.0367 14.9573 19.3186 14.6451 19.6095C14.5978 19.6536 14.5505 19.6977 14.5017 19.7431C13.9542 20.2558 13.4234 20.7847 12.8927 21.3142C12.6984 21.508 12.504 21.7015 12.3094 21.8949C12.2654 21.9389 12.2215 21.9829 12.1762 22.0282C12.1358 22.0684 12.0954 22.1085 12.0537 22.1499C12.0183 22.1853 11.9829 22.2207 11.9464 22.2571C11.7984 22.3917 11.7164 22.4053 11.5115 22.4282C11.2733 22.4042 11.2733 22.4042 11.0835 22.2845C10.7449 21.7772 10.9888 20.8297 11.0327 20.2394C11.0413 20.1225 11.0498 20.0056 11.0583 19.8887C11.0762 19.6448 11.0942 19.4008 11.1123 19.1569C11.1354 18.845 11.1582 18.5331 11.1809 18.2212C11.1985 17.9802 11.2162 17.7393 11.234 17.4983C11.2425 17.3833 11.2509 17.2683 11.2593 17.1533C11.271 16.9925 11.283 16.8317 11.295 16.6709C11.3001 16.6005 11.3001 16.6005 11.3052 16.5286C11.3696 15.6774 11.3696 15.6774 11.665 15.4089C11.7448 15.3351 11.7448 15.3351 11.8263 15.2599C11.9983 15.1089 12.1705 14.9583 12.345 14.8102C12.5571 14.6253 12.7631 14.4342 12.9694 14.243C13.3922 13.8514 13.8179 13.4634 14.2455 13.0771C14.3735 12.9614 14.5013 12.8455 14.6292 12.7297C14.6611 12.7008 14.6929 12.6719 14.7258 12.6422C15.1051 12.2983 15.483 11.953 15.8609 11.6077C16.3013 11.2054 16.742 10.8035 17.1842 10.4032C17.4221 10.1877 17.6593 9.97154 17.8963 9.75509C18.1967 9.48061 18.4979 9.20694 18.7996 8.93382C19.0375 8.71838 19.2747 8.5022 19.5116 8.28574C19.8121 8.01127 20.1132 7.7376 20.415 7.46448C20.6528 7.24903 20.89 7.03286 21.127 6.8164C21.3957 6.57093 21.6648 6.32599 21.9347 6.08173C22.2164 5.82657 22.4978 5.5711 22.7787 5.31511C22.8141 5.28287 22.8496 5.25063 22.8861 5.21741C22.9785 5.13317 23.0704 5.04848 23.1623 4.96375C23.2022 4.92883 23.2421 4.89391 23.2832 4.85794C23.377 4.76632 23.377 4.76632 23.3562 4.58044C23.0837 4.61772 22.8981 4.70999 22.6649 4.8522C22.5929 4.89572 22.521 4.93924 22.4469 4.98408C22.369 5.03187 22.2912 5.07965 22.2133 5.12745C22.132 5.17686 22.0507 5.22623 21.9694 5.27556C21.7606 5.4023 21.5522 5.52957 21.3439 5.65701C21.161 5.76884 20.9778 5.88024 20.7946 5.99164C20.5886 6.11691 20.3826 6.24223 20.1768 6.36773C19.6277 6.70235 19.0766 7.03359 18.5249 7.36407C17.9802 7.69046 17.4369 8.01902 16.8947 8.34963C16.2767 8.72652 15.6568 9.10022 15.0357 9.47226C14.491 9.79865 13.9477 10.1272 13.4056 10.4578C12.8255 10.8116 12.2439 11.1627 11.661 11.5119C11.0714 11.8651 10.483 12.2203 9.89618 12.578C9.69115 12.7028 9.48612 12.8277 9.28108 12.9525C9.14207 13.0371 9.00308 13.1218 8.86411 13.2064C8.65907 13.3313 8.45382 13.4558 8.24851 13.5802C8.18681 13.6178 8.1251 13.6555 8.06153 13.6943C8.00421 13.7289 7.94689 13.7636 7.88783 13.7993C7.83795 13.8296 7.78808 13.8599 7.73669 13.8911C7.68836 13.9176 7.64004 13.9441 7.59025 13.9715C7.54178 13.9992 7.49331 14.027 7.44337 14.0556C7.18289 14.1201 6.97977 14.0338 6.73512 13.9475C6.65623 13.9211 6.65623 13.9211 6.57574 13.8942C6.40202 13.8358 6.22886 13.7759 6.05566 13.7159C5.93426 13.6748 5.81284 13.6337 5.69138 13.5928C5.43864 13.5073 5.18611 13.4213 4.93374 13.3348C4.56787 13.2095 4.20132 13.0864 3.83453 12.9638C3.23623 12.7636 2.63863 12.5615 2.04167 12.3575C1.9533 12.3273 1.86492 12.2971 1.77653 12.267C1.5333 12.1841 1.29051 12.1 1.04804 12.015C0.993083 11.9962 0.938131 11.9774 0.881514 11.958C0.553298 11.841 0.278183 11.718 0.0762942 11.4216C-0.0426284 11.0766 -0.0181268 10.7033 0.119202 10.37C0.524815 9.96895 1.14039 9.79479 1.66869 9.59862C1.73837 9.57243 1.80806 9.54624 1.87986 9.51926C2.10727 9.43386 2.33485 9.34892 2.56244 9.26398C2.72243 9.20397 2.88241 9.14394 3.04238 9.08385C3.287 8.99198 3.53164 8.90015 3.77634 8.80847C4.46971 8.54869 5.16232 8.28697 5.85463 8.02444C6.10264 7.9304 6.35068 7.83645 6.59873 7.7425C6.78394 7.67235 6.96915 7.60218 7.15435 7.53201C7.72079 7.31742 8.28727 7.10295 8.85375 6.88846C9.17027 6.76862 9.48678 6.64877 9.80329 6.52892C9.92983 6.48101 10.0564 6.43309 10.1829 6.38518C10.2455 6.36146 10.3082 6.33774 10.3727 6.31331C20.0528 2.64793 20.0528 2.64793 20.2425 2.57607C20.3692 2.52812 20.4958 2.48017 20.6224 2.43222C20.9374 2.31297 21.2523 2.19373 21.5672 2.07451C22.1535 1.85258 22.7397 1.63055 23.3257 1.40815C23.5987 1.30457 23.8717 1.20105 24.1447 1.09753C24.2733 1.04877 24.4018 0.999983 24.5303 0.951166C25.162 0.711207 25.7942 0.472532 26.4284 0.23903C26.4788 0.220276 26.5293 0.201523 26.5813 0.1822C27.2177 -0.0506218 27.8147 -0.108764 28.3961 0.30017Z" fill="#4C4C4C"/>
</svg>
