<svg width="42" height="24" viewBox="0 0 42 24" fill="none" xmlns="http://www.w3.org/2000/svg">
<path d="M24.175 0.824512C24.6607 1.55677 24.6955 2.30146 24.6919 3.15838C24.6917 3.25232 24.6916 3.34625 24.6914 3.44303C24.6872 4.33873 24.6641 5.23385 24.6407 6.12923C24.3533 8.86672 24.3533 8.86672 25.0911 11.3677C25.3373 11.5399 25.4769 11.6222 25.7784 11.5938C27.6211 11.0492 29.0545 7.9077 29.8967 6.38927C30.5323 5.21848 31.154 4.02477 31.6515 2.7883C31.68 2.71807 31.7084 2.64783 31.7378 2.57547C31.7913 2.44186 31.8436 2.30775 31.8943 2.17306C32.0652 1.74439 32.2371 1.51658 32.6241 1.25765C32.9685 1.14889 33.3182 1.16056 33.6762 1.15679C33.7493 1.15572 33.8225 1.15465 33.8978 1.15355C34.1397 1.15015 34.3816 1.14733 34.6235 1.14459C34.792 1.1425 34.9605 1.1404 35.129 1.13828C35.4824 1.13397 35.8359 1.12998 36.1894 1.12618C36.6411 1.12127 37.0928 1.11521 37.5445 1.10886C37.8927 1.10415 38.2409 1.10022 38.5891 1.0965C38.7556 1.0946 38.922 1.09242 39.0885 1.08995C39.322 1.08658 39.5556 1.08429 39.7891 1.08227C39.8572 1.08105 39.9252 1.07983 39.9953 1.07857C40.6344 1.07517 41.2413 1.16614 41.7948 1.50225C42.0653 1.90623 42.0075 2.33515 41.9586 2.80677C41.3497 5.13046 39.463 7.25314 38.0319 9.11145C36.0711 11.2889 36.0711 11.2889 35.2443 13.8952C35.4842 14.6988 36.2307 15.2898 36.8052 15.8673C36.8437 15.906 36.8821 15.9447 36.9218 15.9846C37.1416 16.2024 37.3679 16.409 37.6029 16.6106C37.9815 16.9376 38.3351 17.287 38.6885 17.6406C38.751 17.7026 38.8135 17.7645 38.878 17.8284C39.2668 18.2161 39.6371 18.6143 39.9935 19.0318C40.0371 19.0824 40.0808 19.1331 40.1258 19.1853C40.6192 19.7617 41.0887 20.3445 41.4827 20.9936C41.5123 21.0421 41.542 21.0906 41.5725 21.1405C41.9103 21.719 42.0275 22.285 41.9586 22.9453C41.8256 23.3179 41.5647 23.4743 41.2405 23.6778C40.8306 23.8637 40.3763 23.8574 39.9326 23.869C39.8711 23.8709 39.8095 23.8727 39.746 23.8746C39.5434 23.8807 39.3408 23.8861 39.1382 23.8915C38.9962 23.8955 38.8542 23.8994 38.7123 23.9033C38.4148 23.9115 38.1173 23.9193 37.8198 23.927C37.441 23.9368 37.0622 23.9478 36.6835 23.9591C36.3901 23.9676 36.0967 23.9753 35.8034 23.9828C35.6638 23.9865 35.5243 23.9905 35.3848 23.9948C33.4694 24.0533 32.1186 23.6275 30.69 22.3141C30.2445 21.893 29.8191 21.463 29.4183 20.9994C29.186 20.7323 28.9472 20.4712 28.7089 20.2095C28.5514 20.0339 28.4 19.8547 28.2486 19.6738C27.7587 19.1145 27.1155 18.5183 26.3551 18.4254C26.0266 18.467 25.9045 18.5684 25.6642 18.7872C25.6102 18.7872 25.5562 18.7872 25.5005 18.7872C25.4649 18.8587 25.4649 18.8587 25.4285 18.9318C25.373 19.0416 25.3163 19.1509 25.2577 19.2592C24.7811 20.1549 24.6703 21.0684 24.6465 22.0681C24.6272 22.5377 24.5659 23.025 24.2469 23.3962C23.7019 23.8817 23.1136 23.8673 22.4232 23.8667C22.2847 23.8672 22.2847 23.8672 22.1434 23.8678C21.9479 23.8682 21.7524 23.8683 21.5568 23.8679C21.2622 23.8677 20.9675 23.8696 20.6728 23.8716C19.6349 23.8745 18.6517 23.8351 17.6399 23.5976C17.5696 23.5818 17.4994 23.566 17.427 23.5498C15.3527 23.0499 13.4516 21.9132 11.7948 20.6031C11.6812 20.514 11.5654 20.4277 11.4492 20.342C10.4132 19.5644 9.50018 18.5886 8.7405 17.5455C8.61893 17.3823 8.49305 17.223 8.3662 17.0638C7.72147 16.2545 7.12309 15.4235 6.54542 14.5656C6.43172 14.3985 6.3159 14.2331 6.19859 14.0685C4.10846 11.1271 2.46629 7.83982 0.925013 4.58666C0.856935 4.4431 0.788488 4.29973 0.720025 4.15636C0.600618 3.90443 0.483836 3.65149 0.368072 3.39788C0.333755 3.32573 0.299438 3.25358 0.264081 3.17924C0.0435944 2.68429 -0.0597318 2.20686 0.0354296 1.66532C0.19904 1.42591 0.403441 1.29646 0.683265 1.20838C0.870215 1.17311 1.04552 1.16303 1.23578 1.15938C1.31151 1.15776 1.38725 1.15613 1.46527 1.15446C1.54714 1.15309 1.62901 1.15173 1.71335 1.15032C1.79902 1.14861 1.88469 1.14691 1.97296 1.14514C2.25168 1.13974 2.53042 1.13493 2.80915 1.13026C2.95062 1.12779 2.95062 1.12779 3.09495 1.12527C3.65647 1.11553 4.218 1.10669 4.77954 1.09841C5.00538 1.09497 5.23122 1.09115 5.45706 1.08714C5.79752 1.0812 6.13796 1.07739 6.47846 1.07421C6.57381 1.07246 6.66916 1.07072 6.7674 1.06893C7.49549 1.06592 8.04908 1.20285 8.63295 1.66532C8.93521 2.06353 9.11288 2.49009 9.30336 2.94945C10.1283 4.88516 11.1119 6.7678 12.1538 8.59559C12.1871 8.65444 12.2204 8.7133 12.2547 8.77394C12.6528 9.47363 13.0881 10.1135 13.6277 10.7154C13.6755 10.7707 13.7233 10.826 13.7726 10.883C14.196 11.343 14.6986 11.6676 15.3319 11.7193C15.7167 11.5615 15.8384 11.3314 16.0023 10.96C16.839 8.76346 16.7901 5.38171 16.0278 3.15838C15.8103 2.69322 15.5096 2.36692 15.0253 2.17259C14.6464 2.03889 14.2619 1.93027 13.8734 1.82838C13.9372 1.42602 14.0527 1.28402 14.3646 1.01306C14.4112 0.971541 14.4577 0.930026 14.5057 0.887254C15.5514 0.0213291 17.2422 0.0922355 18.5406 0.0601438C18.6276 0.057784 18.6276 0.057784 18.7163 0.0553765C23.2413 -0.0638726 23.2413 -0.0638726 24.175 0.824512Z" fill="#4C4C4C"/>
</svg>
