<svg width="69" height="64" viewBox="0 0 69 64" fill="none" xmlns="http://www.w3.org/2000/svg">
<g clip-path="url(#clip0_191_3073)">
<path d="M8.85768 58.1528L7.10059 57.1238L11.1202 50.3193L15.6694 52.9757L14.9233 54.2281L11.8504 52.4333L11.1363 53.6378C11.7461 53.909 11.9707 54.0446 12.2836 54.2281C14.0006 55.2332 14.4017 56.3739 13.5513 57.8098C12.5965 59.4212 11.2005 59.5169 8.84966 58.1448L8.85768 58.1528ZM9.37919 56.6292L10.0692 57.028C11.1363 57.6503 11.5936 57.6263 11.9948 56.9483C12.3638 56.3261 12.2034 55.9671 11.3048 55.4486C11.3048 55.4486 10.7993 55.1534 10.35 54.9859L9.37919 56.6292Z" fill="#4C4C4C"/>
<path d="M21.1495 63.2342L19.3764 62.6838L19.4245 61.0884L16.8892 60.3066L16.0227 61.6468L14.2495 61.0963L18.919 54.2839L21.1977 54.9859L21.1575 63.2342H21.1495ZM17.7156 59.0064L19.4566 59.5488L19.577 56.1266L17.7156 59.0064Z" fill="#4C4C4C"/>
<path d="M29.8146 59.6286C29.6702 61.1043 28.8037 61.7664 26.87 61.583L25.5221 61.4553L25.2895 63.8325L23.5083 63.665L24.2705 55.8156L27.4959 56.1267C29.4134 56.3101 30.0553 57.1318 29.9109 58.6075L29.8146 59.6366V59.6286ZM28.1217 58.5995C28.1778 58.0332 28.0013 57.754 27.2552 57.6822L25.9073 57.5546L25.6746 59.9237L27.0225 60.0514C27.7927 60.1232 28.0013 59.844 28.0575 59.2856L28.1217 58.5995Z" fill="#4C4C4C"/>
<path d="M33.2563 61.3996C33.3285 62.0936 33.5852 62.4605 34.4678 62.3728C35.0374 62.317 35.7996 62.1734 36.4896 61.9739L36.8988 63.4896C36.1206 63.7448 35.4466 63.8884 34.6363 63.9682C32.6465 64.1756 31.6516 63.2742 31.5072 61.8623L31.1622 58.5917C31.0178 57.1797 31.804 56.0948 33.7938 55.8954C34.5961 55.8156 35.2942 55.8156 36.1045 55.9034L36.0163 57.4749C35.3022 57.419 34.5239 57.435 33.9623 57.4988C33.0717 57.5945 32.9032 58.0014 32.9754 58.6954L33.2563 61.4076V61.3996Z" fill="#4C4C4C"/>
<path d="M39.6508 63.0987L37.1636 55.6082L38.7843 55.0738L40.5012 60.2349L41.2635 54.2601L43.3415 53.5741L45.8287 61.0646L44.208 61.599L42.5712 56.6772L41.7449 62.4127L39.6508 63.0987Z" fill="#4C4C4C"/>
<path d="M44.6172 52.9359L46.1336 52.0026L50.2977 58.7113L48.7813 59.6446L44.6172 52.9359ZM48.3721 55.1695L48.1554 50.7661L49.8644 49.7131L50.0088 54.1643L54.1729 56.3421L52.4639 57.395L48.3721 55.1774V55.1695Z" fill="#4C4C4C"/>
<path d="M10.1415 26.8189C15.3807 27.9835 22.393 28.6217 29.8948 28.6217C37.3965 28.6217 44.4088 27.9835 49.648 26.8189C52.6568 26.1568 54.4941 25.0081 55.6655 24.0987L54.462 3.53382C54.3657 2.16177 53.6436 0.981161 52.5284 0.390858C51.2206 -0.303146 49.6962 -0.0478803 48.6531 1.037L38.4877 11.5667C35.7518 10.8807 32.8874 10.5377 29.967 10.5377C27.0465 10.5377 24.1581 10.8887 21.4062 11.5747L11.2247 1.037C10.1736 -0.0558573 8.6492 -0.311123 7.3414 0.390858C6.22617 0.981161 5.50408 2.16177 5.4078 3.53382L4.19629 24.1625C5.36768 25.0639 7.19699 26.1727 10.1335 26.8269L10.1415 26.8189Z" fill="#4C4C4C"/>
<path d="M67.4918 29.7784C65.8551 27.7123 62.9988 26.8428 60.1987 27.5687C60.0061 27.6166 59.8296 27.6644 59.6692 27.7123C59.7334 26.9306 59.7815 26.1408 59.7815 25.3511C59.7815 24.8087 59.3402 24.3619 58.7866 24.3619C58.233 24.3619 56.1871 27.5687 50.1054 28.9089C44.7138 30.1054 37.533 30.7595 29.8868 30.7595C22.2407 30.7595 15.0599 30.1054 9.66823 28.9089C3.58661 27.5607 1.53265 24.3619 0.987071 24.3619C0.44149 24.3619 -0.0078125 24.8007 -0.0078125 25.3511C-0.0078125 41.2334 13.399 54.1483 29.8868 54.1483C37.18 54.1483 43.8633 51.6196 49.0544 47.4236C49.8888 47.5513 50.7313 47.6151 51.5737 47.6151C55.5853 47.6151 59.6932 46.1952 63.5765 43.4431C65.8872 41.8078 67.4918 39.9092 68.3343 37.8033C69.4575 34.9954 69.1206 31.8524 67.4918 29.7863V29.7784ZM65.3897 36.6307C64.78 38.1623 63.5524 39.5822 61.7472 40.8665C59.4606 42.4858 56.1149 44.2488 52.2477 44.4402C55.6415 40.7548 58.0725 36.2398 59.1557 31.2461C59.6451 30.9989 60.0703 30.8792 61.0091 30.6319C62.2045 30.3208 63.9616 30.4245 65.0046 31.7407C65.9273 32.8974 66.0798 34.9156 65.3978 36.6386L65.3897 36.6307Z" fill="#4C4C4C"/>
</g>
<defs>
<clipPath id="clip0_191_3073">
<rect width="69" height="64" fill="white"/>
</clipPath>
</defs>
</svg>
